<mxfile host="app.diagrams.net" modified="2021-08-04T00:43:08.094Z" agent="5.0 (Windows)" etag="NBCrQCA0NVbTMFuDVR1k" version="14.9.4" type="github">
  <diagram id="HwXfFfDnvef87fIKIueW" name="Page-1">
    <mxGraphModel dx="1422" dy="790" grid="1" gridSize="10" guides="1" tooltips="1" connect="1" arrows="1" fold="1" page="1" pageScale="1" pageWidth="827" pageHeight="1169" math="0" shadow="0">
      <root>
        <mxCell id="0" />
        <mxCell id="1" parent="0" />
        <mxCell id="H1Q3nRSX9AKOqO8gnQJm-1" value="Environment" style="shape=table;startSize=30;container=1;collapsible=1;childLayout=tableLayout;fixedRows=1;rowLines=0;fontStyle=1;align=center;resizeLast=1;" vertex="1" parent="1">
          <mxGeometry x="330" y="80" width="250" height="240" as="geometry" />
        </mxCell>
        <mxCell id="H1Q3nRSX9AKOqO8gnQJm-2" value="" style="shape=partialRectangle;collapsible=0;dropTarget=0;pointerEvents=0;fillColor=none;points=[[0,0.5],[1,0.5]];portConstraint=eastwest;top=0;left=0;right=0;bottom=1;" vertex="1" parent="H1Q3nRSX9AKOqO8gnQJm-1">
          <mxGeometry y="30" width="250" height="30" as="geometry" />
        </mxCell>
        <mxCell id="H1Q3nRSX9AKOqO8gnQJm-3" value="PK" style="shape=partialRectangle;overflow=hidden;connectable=0;fillColor=none;top=0;left=0;bottom=0;right=0;fontStyle=1;" vertex="1" parent="H1Q3nRSX9AKOqO8gnQJm-2">
          <mxGeometry width="30" height="30" as="geometry" />
        </mxCell>
        <mxCell id="H1Q3nRSX9AKOqO8gnQJm-4" value="_id: ObjectId" style="shape=partialRectangle;overflow=hidden;connectable=0;fillColor=none;top=0;left=0;bottom=0;right=0;align=left;spacingLeft=6;fontStyle=5;" vertex="1" parent="H1Q3nRSX9AKOqO8gnQJm-2">
          <mxGeometry x="30" width="220" height="30" as="geometry" />
        </mxCell>
        <mxCell id="H1Q3nRSX9AKOqO8gnQJm-5" value="" style="shape=partialRectangle;collapsible=0;dropTarget=0;pointerEvents=0;fillColor=none;points=[[0,0.5],[1,0.5]];portConstraint=eastwest;top=0;left=0;right=0;bottom=0;" vertex="1" parent="H1Q3nRSX9AKOqO8gnQJm-1">
          <mxGeometry y="60" width="250" height="30" as="geometry" />
        </mxCell>
        <mxCell id="H1Q3nRSX9AKOqO8gnQJm-6" value="" style="shape=partialRectangle;overflow=hidden;connectable=0;fillColor=none;top=0;left=0;bottom=0;right=0;" vertex="1" parent="H1Q3nRSX9AKOqO8gnQJm-5">
          <mxGeometry width="30" height="30" as="geometry" />
        </mxCell>
        <mxCell id="H1Q3nRSX9AKOqO8gnQJm-7" value="arduinoId                                        str" style="shape=partialRectangle;overflow=hidden;connectable=0;fillColor=none;top=0;left=0;bottom=0;right=0;align=left;spacingLeft=6;" vertex="1" parent="H1Q3nRSX9AKOqO8gnQJm-5">
          <mxGeometry x="30" width="220" height="30" as="geometry" />
        </mxCell>
        <mxCell id="H1Q3nRSX9AKOqO8gnQJm-8" value="" style="shape=partialRectangle;collapsible=0;dropTarget=0;pointerEvents=0;fillColor=none;points=[[0,0.5],[1,0.5]];portConstraint=eastwest;top=0;left=0;right=0;bottom=0;" vertex="1" parent="H1Q3nRSX9AKOqO8gnQJm-1">
          <mxGeometry y="90" width="250" height="30" as="geometry" />
        </mxCell>
        <mxCell id="H1Q3nRSX9AKOqO8gnQJm-9" value="" style="shape=partialRectangle;overflow=hidden;connectable=0;fillColor=none;top=0;left=0;bottom=0;right=0;" vertex="1" parent="H1Q3nRSX9AKOqO8gnQJm-8">
          <mxGeometry width="30" height="30" as="geometry" />
        </mxCell>
        <mxCell id="H1Q3nRSX9AKOqO8gnQJm-10" value="airQuality                                        str" style="shape=partialRectangle;overflow=hidden;connectable=0;fillColor=none;top=0;left=0;bottom=0;right=0;align=left;spacingLeft=6;" vertex="1" parent="H1Q3nRSX9AKOqO8gnQJm-8">
          <mxGeometry x="30" width="220" height="30" as="geometry" />
        </mxCell>
        <mxCell id="H1Q3nRSX9AKOqO8gnQJm-11" value="" style="shape=partialRectangle;collapsible=0;dropTarget=0;pointerEvents=0;fillColor=none;top=0;left=0;bottom=0;right=0;points=[[0,0.5],[1,0.5]];portConstraint=eastwest;" vertex="1" parent="H1Q3nRSX9AKOqO8gnQJm-1">
          <mxGeometry y="120" width="250" height="30" as="geometry" />
        </mxCell>
        <mxCell id="H1Q3nRSX9AKOqO8gnQJm-12" value="" style="shape=partialRectangle;connectable=0;fillColor=none;top=0;left=0;bottom=0;right=0;editable=1;overflow=hidden;" vertex="1" parent="H1Q3nRSX9AKOqO8gnQJm-11">
          <mxGeometry width="30" height="30" as="geometry" />
        </mxCell>
        <mxCell id="H1Q3nRSX9AKOqO8gnQJm-13" value="food                                                 int" style="shape=partialRectangle;connectable=0;fillColor=none;top=0;left=0;bottom=0;right=0;align=left;spacingLeft=6;overflow=hidden;" vertex="1" parent="H1Q3nRSX9AKOqO8gnQJm-11">
          <mxGeometry x="30" width="220" height="30" as="geometry" />
        </mxCell>
        <mxCell id="H1Q3nRSX9AKOqO8gnQJm-14" value="temp                                               int" style="shape=partialRectangle;connectable=0;fillColor=none;top=0;left=0;bottom=0;right=0;align=left;spacingLeft=6;overflow=hidden;" vertex="1" parent="1">
          <mxGeometry x="360" y="230" width="220" height="30" as="geometry" />
        </mxCell>
        <mxCell id="H1Q3nRSX9AKOqO8gnQJm-15" value="lastUpdate                                    str" style="shape=partialRectangle;connectable=0;fillColor=none;top=0;left=0;bottom=0;right=0;align=left;spacingLeft=6;overflow=hidden;" vertex="1" parent="1">
          <mxGeometry x="360" y="260" width="220" height="30" as="geometry" />
        </mxCell>
        <mxCell id="H1Q3nRSX9AKOqO8gnQJm-16" value="measurements                           array" style="shape=partialRectangle;connectable=0;fillColor=none;top=0;left=0;bottom=0;right=0;align=left;spacingLeft=6;overflow=hidden;" vertex="1" parent="1">
          <mxGeometry x="360" y="290" width="220" height="30" as="geometry" />
        </mxCell>
      </root>
    </mxGraphModel>
  </diagram>
</mxfile>
